<?xml version="1.0" standalone="no"?>
<!DOCTYPE svg PUBLIC "-//W3C//DTD SVG 20010904//EN"
 "http://www.w3.org/TR/2001/REC-SVG-20010904/DTD/svg10.dtd">
<svg version="1.0" xmlns="http://www.w3.org/2000/svg"
 width="974.000000pt" height="870.000000pt" viewBox="0 0 974.000000 870.000000"
 preserveAspectRatio="xMidYMid meet">

<g transform="translate(0.000000,870.000000) scale(0.100000,-0.100000)"
fill="#000000" stroke="none">
<path d="M0 4350 l0 -4350 4870 0 4870 0 0 4350 0 4350 -4870 0 -4870 0 0
-4350z m2628 3713 l34 -43 83 0 c53 0 109 8 161 22 43 12 113 23 155 26 69 3
85 0 155 -29 44 -18 84 -36 91 -41 19 -15 185 -105 283 -154 30 -15 64 -35 75
-44 20 -17 127 -76 240 -133 41 -20 84 -55 140 -113 44 -47 125 -132 180 -190
55 -58 196 -202 313 -320 116 -118 212 -217 212 -220 0 -7 122 -124 129 -124
8 0 71 -72 71 -81 0 -5 -5 -9 -11 -9 -7 0 -9 -9 -6 -22 5 -17 -10 -48 -58
-120 -36 -54 -65 -104 -65 -111 0 -8 14 -32 31 -53 28 -34 118 -169 237 -354
19 -30 47 -73 61 -95 37 -57 201 -403 201 -424 0 -16 23 -61 31 -61 4 0 10 10
13 23 3 12 3 0 2 -26 -5 -75 16 -52 41 44 24 91 29 201 14 290 -6 30 -12 75
-16 101 -3 26 -10 80 -15 120 -23 163 -28 238 -25 343 8 274 101 495 285 676
51 51 101 91 117 95 16 4 39 12 53 19 86 43 193 75 249 75 25 0 60 4 76 9 40
11 307 -21 400 -48 169 -48 380 -148 520 -243 60 -42 184 -158 201 -190 6 -11
6 -42 1 -80 -25 -179 -17 -401 20 -530 15 -53 15 -61 -1 -110 -9 -30 -25 -67
-35 -85 l-19 -31 37 -14 c31 -13 39 -21 44 -50 9 -56 -12 -194 -46 -298 -8
-25 -20 -79 -27 -120 -7 -41 -18 -86 -25 -100 -7 -14 -18 -56 -24 -95 -19
-106 -40 -150 -54 -112 -3 8 -9 7 -19 -7 -8 -10 -39 -24 -69 -30 l-54 -13 -7
-46 c-7 -51 -14 -67 -30 -67 -6 0 -7 7 -3 18 4 9 7 30 6 46 -3 55 17 79 88
107 58 23 66 29 68 54 1 15 5 35 8 43 3 8 1 20 -5 27 -8 9 -8 19 -1 32 5 10
14 33 20 51 9 28 8 32 -9 32 -10 0 -22 5 -25 10 -3 6 -12 10 -18 10 -7 0 -4
-5 5 -11 9 -5 15 -16 12 -23 -3 -8 0 -17 5 -21 6 -3 9 -11 5 -16 -3 -5 -10 -6
-16 -3 -7 5 -9 1 -5 -9 3 -10 2 -17 -3 -17 -6 0 -10 -15 -10 -32 -1 -28 -2
-30 -11 -15 -6 9 -8 25 -5 35 3 9 1 24 -4 32 -6 9 -10 10 -10 3 0 -7 -17 -12
-42 -13 -39 -1 -81 -4 -115 -8 -7 -1 -13 -11 -13 -23 0 -14 -5 -19 -17 -17
-26 5 -18 53 18 106 16 24 27 48 24 53 -3 5 1 6 9 3 12 -4 16 0 16 16 0 11 -4
18 -10 15 -13 -8 -13 2 6 115 8 52 17 134 19 183 4 79 2 89 -17 107 -12 11
-26 20 -32 20 -5 0 -59 22 -120 49 -61 27 -122 52 -136 56 -14 4 -38 13 -55
20 -39 17 -174 65 -200 72 -20 5 -35 10 -90 33 -16 7 -67 22 -113 35 -69 18
-85 20 -100 9 -9 -7 -24 -13 -32 -14 -9 0 -11 3 -4 8 27 18 23 41 -13 63 -32
20 -34 23 -17 30 14 5 11 7 -12 6 -21 -1 -30 -6 -27 -14 3 -7 9 -13 14 -13 5
0 9 -4 9 -10 0 -5 -7 -10 -16 -10 -8 0 -12 -5 -9 -11 4 -6 13 -8 21 -5 17 7
18 -6 2 -22 -9 -9 -8 -25 2 -69 24 -108 33 -138 37 -125 6 14 49 16 58 2 3 -6
-6 -15 -20 -20 -15 -6 -34 -19 -44 -31 -9 -11 -27 -21 -41 -23 -40 -5 -84 -18
-97 -29 -9 -7 -13 -5 -13 7 0 9 5 16 10 16 6 0 10 8 10 18 0 10 15 32 34 50
l34 32 -14 47 c-8 27 -19 67 -23 90 -7 34 -6 40 7 36 10 -4 13 -1 10 8 -3 8
-12 13 -22 11 -11 -2 -16 4 -16 23 0 23 3 25 23 19 22 -6 22 -6 -2 20 l-25 26
31 -6 c23 -4 32 -2 37 11 5 15 16 16 74 10 69 -7 150 -29 187 -52 16 -10 17
-14 7 -21 -16 -11 16 -22 63 -22 38 0 237 -54 335 -90 41 -16 101 -36 133 -46
31 -10 57 -21 57 -26 0 -4 18 -8 39 -8 31 0 41 -4 46 -21 4 -12 12 -18 21 -15
7 3 16 1 20 -5 3 -6 11 -8 17 -6 7 2 19 -2 28 -10 10 -8 41 -21 70 -29 50 -13
55 -12 67 4 12 15 13 15 12 -8 -3 -39 -1 -50 11 -50 6 0 9 7 5 15 -3 8 -2 25
3 38 35 93 43 131 37 180 -4 29 -9 70 -12 92 -2 22 -12 77 -21 122 -14 71 -14
102 -5 223 10 125 10 145 -5 179 -9 21 -24 42 -33 47 -10 5 -53 34 -96 64 -89
61 -150 96 -244 140 -36 17 -74 36 -85 42 -11 6 -57 31 -103 55 -68 35 -87 41
-103 32 -15 -7 -24 -7 -33 0 -8 6 -20 9 -28 6 -18 -7 -68 11 -82 30 -14 17
-86 32 -86 17 0 -6 12 -13 28 -15 l27 -4 -26 -2 c-15 0 -32 6 -39 14 -7 8 -20
15 -29 15 -14 0 -14 -2 -1 -10 24 -15 10 -18 -95 -24 -55 -3 -118 -10 -140
-16 -22 -6 -47 -12 -56 -14 -18 -5 -91 -43 -152 -80 -21 -13 -53 -37 -70 -54
-18 -18 -37 -32 -42 -32 -9 0 -41 -42 -70 -90 -84 -141 -125 -273 -140 -445
-7 -73 8 -283 25 -357 46 -207 58 -386 35 -517 -17 -95 -60 -199 -120 -286
-24 -35 -50 -88 -59 -118 -17 -60 -72 -119 -143 -155 -21 -11 -46 -29 -57 -41
-23 -25 -14 -40 47 -71 23 -12 83 -48 132 -80 50 -32 126 -75 169 -96 86 -42
143 -93 222 -196 114 -149 244 -296 274 -308 39 -16 62 -1 43 29 -9 14 -9 23
2 38 10 14 14 48 13 109 -1 99 13 156 61 253 38 75 97 141 156 176 50 29 72
31 94 11 9 -8 45 -29 81 -47 36 -17 79 -43 96 -55 17 -13 37 -24 45 -24 8 0
32 -9 54 -20 22 -11 47 -20 56 -20 21 0 102 76 104 98 2 21 24 91 38 117 11
21 12 24 21 120 3 33 11 62 17 64 16 5 45 35 51 52 3 8 9 11 13 7 4 -4 2 -21
-4 -39 -6 -18 -11 -76 -11 -129 0 -92 -11 -151 -41 -219 -8 -17 -17 -31 -21
-31 -4 0 -12 -9 -18 -20 -9 -16 -8 -18 5 -14 22 9 19 2 -22 -43 -73 -78 -128
-75 -318 22 -122 62 -167 94 -160 116 4 11 2 19 -2 19 -20 0 -77 -80 -110
-155 -19 -44 -42 -95 -50 -114 -14 -32 -26 -100 -37 -228 -5 -53 -3 -63 12
-68 9 -3 33 -26 52 -50 19 -25 39 -45 45 -45 14 0 94 -138 116 -202 37 -106
79 -326 84 -449 2 -25 6 -56 10 -70 5 -13 10 -49 11 -79 3 -50 13 -126 29
-220 4 -19 13 -80 20 -135 8 -56 24 -123 35 -150 21 -50 27 -64 49 -118 6 -15
11 -37 11 -47 0 -21 14 -56 67 -167 39 -82 39 -82 117 -113 32 -13 70 -34 85
-48 30 -29 81 -52 112 -52 12 0 45 -13 73 -28 28 -16 80 -36 116 -46 36 -10
72 -22 80 -27 44 -27 106 -49 137 -49 34 0 35 -1 30 -30 -7 -34 1 -40 91 -71
78 -26 88 -24 102 14 10 28 13 30 23 15 10 -13 17 -14 32 -5 11 6 58 11 105
11 67 1 92 -3 117 -19 l33 -19 82 27 c46 15 101 30 122 35 22 4 43 14 47 22 4
8 33 68 64 134 31 65 66 135 79 155 12 20 33 61 45 91 13 29 33 70 46 90 36
57 146 278 265 530 132 279 203 423 230 468 18 30 23 32 72 31 29 -1 64 -4 78
-8 39 -11 31 -60 -24 -158 -26 -46 -67 -129 -92 -185 -25 -57 -67 -146 -93
-198 -27 -52 -70 -144 -97 -205 -26 -60 -62 -132 -80 -160 -17 -27 -45 -77
-62 -110 -18 -33 -47 -87 -67 -120 -19 -33 -47 -82 -61 -110 -15 -27 -32 -57
-39 -65 -7 -8 -35 -55 -61 -105 -45 -85 -130 -215 -181 -278 -31 -38 -29 -50
12 -104 39 -51 35 -70 -11 -53 -42 17 -112 19 -714 25 -918 9 -904 8 -1164 79
-96 27 -227 95 -254 133 -26 36 -68 138 -88 211 -21 77 -29 106 -49 177 -9 33
-23 100 -30 149 -8 48 -16 90 -18 92 -3 3 -53 0 -113 -5 -115 -11 -450 -31
-517 -31 -32 0 -45 -6 -71 -35 -39 -42 -66 -46 -66 -10 0 18 11 32 40 51 46
31 123 45 335 63 77 7 192 19 255 26 63 8 156 17 207 21 l92 6 -18 47 c-11 25
-29 71 -41 101 -13 30 -29 71 -36 90 -8 19 -27 112 -44 205 -16 94 -37 208
-46 255 -9 47 -18 94 -19 106 -2 11 -8 45 -14 76 -7 30 -11 59 -10 64 1 5 0
16 -4 24 -9 24 -27 119 -27 143 1 40 16 -3 39 -108 12 -55 26 -118 31 -140 5
-22 18 -85 30 -140 12 -55 28 -127 35 -160 7 -33 16 -85 20 -115 3 -30 13 -73
20 -95 8 -22 35 -105 60 -185 26 -80 51 -149 56 -155 6 -5 7 14 3 50 -8 78 9
140 50 181 58 58 172 70 235 25 41 -29 55 -19 46 33 -3 22 -8 66 -10 96 -26
379 -64 614 -126 792 -17 48 -39 95 -48 105 -9 10 -29 37 -44 61 -57 87 -156
110 -180 42 -4 -12 -6 -12 -6 1 -1 9 -12 19 -24 23 -25 6 -84 66 -184 188 -35
42 -76 90 -93 108 -16 18 -30 39 -30 47 0 29 -146 159 -227 203 -43 23 -94 54
-113 68 -46 36 -80 53 -91 47 -8 -6 -26 5 -117 68 -25 18 -48 26 -59 23 -65
-22 -497 -496 -599 -657 -14 -23 -45 -65 -67 -94 -78 -98 -179 -301 -214 -424
-31 -114 -64 -280 -78 -396 -8 -66 -19 -156 -24 -200 -21 -172 -43 -691 -38
-885 6 -215 32 -374 64 -398 10 -7 18 -25 19 -40 1 -15 3 -31 3 -37 1 -5 12 6
24 26 12 20 28 34 35 32 6 -3 12 0 12 6 0 6 -4 11 -9 11 -4 0 -8 18 -8 40 0
22 4 40 8 40 5 0 9 -9 9 -19 0 -10 7 -21 15 -25 8 -3 14 -9 13 -13 -3 -17 23
-64 32 -58 7 4 8 11 2 18 -19 24 -23 79 -13 165 6 48 14 122 17 166 4 57 9 75
17 67 7 -7 11 -65 10 -168 -1 -145 1 -159 20 -187 12 -17 23 -33 24 -35 1 -1
6 0 12 4 7 4 6 16 -4 36 -10 19 -20 27 -28 22 -8 -5 -8 -2 1 9 9 12 12 68 12
223 -1 136 2 211 9 218 8 8 11 4 11 -13 4 -183 20 -363 34 -385 9 -14 12 -25
6 -25 -15 0 -12 -36 4 -49 14 -12 11 -46 -7 -68 -7 -10 -4 -13 12 -13 13 0 19
-4 16 -11 -4 -6 -13 -8 -21 -5 -26 10 -14 -10 35 -62 57 -60 110 -145 136
-217 20 -54 31 -72 40 -63 10 9 45 198 45 239 0 21 5 39 10 39 6 0 10 12 10
26 0 14 4 23 9 20 7 -5 9 -38 13 -176 0 -8 -2 -37 -5 -64 -4 -27 -4 -53 -1
-58 3 -4 18 2 34 14 l30 21 -4 109 c-3 114 3 128 39 91 16 -15 16 -18 1 -28
-11 -8 -16 -27 -16 -58 0 -41 -13 -158 -25 -229 -2 -16 -1 -28 4 -28 17 0 34
106 33 202 0 77 3 98 15 102 19 8 33 -1 33 -21 0 -37 66 -203 81 -203 13 0 16
34 5 58 -7 17 -6 26 3 31 7 5 16 37 21 72 4 35 12 75 17 89 6 14 11 52 12 84
2 64 15 104 25 76 11 -36 24 -191 21 -260 -2 -41 -2 -64 1 -50 18 101 18 100
24 45 6 -47 7 -48 17 -25 10 21 12 14 12 -52 1 -70 10 -94 25 -69 3 4 17 6 31
3 46 -8 66 65 121 447 19 133 15 176 -26 302 -17 50 -30 101 -30 113 0 12 -16
60 -35 106 -40 97 -42 110 -16 110 25 0 37 -16 51 -70 6 -25 20 -70 30 -100
11 -30 29 -99 40 -153 12 -53 29 -104 37 -113 13 -13 15 -33 8 -127 -4 -62 -7
-120 -7 -130 1 -10 -5 -36 -13 -57 -11 -30 -11 -40 -2 -40 8 0 9 -3 1 -8 -14
-9 -25 -80 -13 -84 5 -2 5 -18 -2 -41 -5 -20 -7 -43 -3 -49 13 -20 14 -61 2
-75 -8 -10 -5 -13 11 -13 14 0 29 12 42 35 12 19 22 35 24 35 2 0 1 -15 -2
-34 l-5 -34 40 13 c22 8 94 18 159 23 111 8 122 10 166 41 26 18 53 31 59 29
5 -2 -8 -16 -31 -31 -22 -15 -41 -31 -41 -35 0 -12 168 -7 231 6 35 8 65 9 80
4 18 -7 8 -10 -50 -16 -40 -4 -70 -10 -66 -14 3 -4 257 -6 563 -5 551 1 1178
-16 1337 -37 156 -20 308 -56 400 -95 76 -31 88 -35 94 -30 9 9 7 304 -2 298
-17 -10 -6 98 13 132 11 20 18 40 15 44 -5 10 21 68 35 76 9 5 5 -37 -6 -72
-2 -7 0 -13 5 -13 5 0 11 17 15 39 6 38 25 53 54 44 21 -8 14 -40 -9 -39 -12
1 -24 -5 -27 -13 -3 -10 1 -12 18 -8 19 5 21 3 16 -18 -3 -13 -2 -27 4 -30 7
-4 6 -13 -1 -26 -6 -11 -8 -27 -5 -35 3 -8 -1 -35 -10 -61 -12 -34 -13 -48 -4
-53 8 -5 8 -9 -3 -13 -9 -3 -13 -18 -12 -44 1 -21 3 -88 4 -148 l1 -111 53
-27 c78 -41 133 -74 222 -132 135 -88 195 -125 202 -125 4 0 23 -11 42 -24 20
-13 56 -35 81 -50 25 -14 52 -30 60 -36 8 -5 51 -30 95 -56 135 -79 300 -193
291 -201 -3 -4 -86 40 -166 87 -52 31 -96 55 -350 187 -165 87 -254 135 -270
148 -22 17 -122 69 -220 114 -47 21 -123 56 -170 78 -114 54 -247 100 -361
124 -185 39 -1054 76 -1499 64 -129 -3 -345 -8 -480 -10 -259 -4 -555 -25
-705 -51 -240 -40 -630 -43 -765 -6 -110 31 -158 49 -220 84 -101 58 -142 77
-156 71 -8 -3 -14 1 -14 10 0 17 -51 50 -140 92 -30 14 -61 32 -70 40 -8 7
-33 17 -55 20 -44 8 -121 40 -145 60 -19 16 -82 25 -185 25 -81 1 -228 -14
-245 -25 -14 -9 -373 -9 -470 -1 -47 5 -132 21 -190 38 -58 16 -116 32 -130
35 -14 3 -30 10 -37 15 -12 10 -108 27 -184 33 -26 1 -57 9 -70 15 -20 11 -25
10 -34 -4 -31 -53 -30 -52 -79 -35 -39 14 -46 14 -51 1 -3 -9 -14 -13 -32 -9
-15 3 -54 -3 -88 -13 -125 -37 -205 -55 -362 -84 -73 -13 -117 -29 -193 -71
-71 -38 -221 -105 -250 -110 -3 0 -18 -8 -35 -17 -16 -8 -46 -19 -65 -22 -19
-4 -63 -14 -97 -22 -34 -8 -77 -14 -95 -14 -18 0 -44 -1 -58 -3 -14 -2 -30 1
-37 5 -6 5 -14 4 -18 -3 -6 -8 -10 -8 -16 2 -6 11 -12 10 -27 -4 -16 -14 -24
-15 -51 -6 -39 14 -32 22 34 39 28 6 58 14 68 17 13 3 17 15 17 54 0 42 -5 54
-36 89 -45 49 -37 66 10 21 18 -17 39 -31 47 -29 10 2 15 -9 17 -37 5 -66 11
-73 33 -36 11 18 16 37 13 43 -11 18 18 119 33 114 7 -3 13 1 13 9 0 8 9 15
20 15 11 0 20 -5 20 -11 0 -5 -4 -8 -8 -5 -4 2 -6 -12 -4 -32 6 -66 7 -68 24
-38 l16 30 16 -31 c32 -63 40 -52 33 46 -6 77 -4 95 9 108 12 13 15 13 14 2
-4 -27 0 -45 15 -65 13 -17 14 -14 15 44 0 40 -4 61 -10 57 -6 -3 -10 -1 -10
4 0 6 4 11 9 11 5 0 11 8 14 18 2 11 14 -5 33 -47 l30 -64 15 24 c22 33 34 73
20 65 -10 -6 -41 42 -41 64 0 22 22 9 31 -20 6 -16 14 -30 18 -30 17 0 38 57
34 92 -3 24 -1 38 6 38 6 0 14 0 18 0 4 0 8 -7 9 -16 7 -47 33 -56 35 -11 1
18 2 17 9 -7 5 -16 7 -33 5 -37 -7 -10 23 -78 41 -97 8 -8 18 -11 22 -8 3 4 2
10 -4 14 -6 4 -14 18 -17 32 -3 14 -10 40 -15 58 -15 46 -1 39 33 -18 45 -78
52 -67 24 40 -13 50 -11 70 6 70 8 0 15 -3 16 -7 0 -5 1 -26 3 -48 2 -22 10
-56 19 -75 l15 -35 1 30 c1 22 4 26 10 15 6 -8 7 -18 5 -22 -3 -5 3 -12 13
-16 10 -4 18 -13 18 -21 0 -8 6 -16 13 -19 7 -2 10 2 6 12 -4 11 -1 16 11 16
14 0 16 6 11 30 -5 27 -3 30 19 30 14 0 25 5 25 11 0 8 5 8 15 -1 8 -7 15 -19
15 -26 0 -8 5 -14 10 -14 11 0 7 111 -10 270 -12 116 -12 121 2 90 l11 -25 4
23 c8 41 23 12 23 -43 0 -50 15 -113 25 -103 6 6 8 183 2 243 -2 28 -3 42 0
32 2 -9 10 -17 17 -17 7 0 18 -23 25 -51 12 -44 11 -53 -1 -60 -11 -6 -14 -33
-12 -131 1 -68 2 -129 3 -135 1 -16 21 -17 21 -2 0 5 9 30 20 54 12 27 18 54
14 69 -3 13 -1 27 5 30 6 4 11 4 12 -1 2 -29 10 -46 35 -77 20 -24 31 -31 36
-23 13 20 9 87 -5 102 -9 8 -14 44 -16 101 -1 49 -6 118 -11 154 -4 36 -7 81
-5 100 2 19 7 79 10 132 4 54 11 100 16 104 5 3 9 -10 9 -28 0 -18 7 -60 14
-93 8 -33 17 -100 21 -150 3 -49 9 -98 11 -107 3 -10 1 -18 -5 -18 -5 0 -12
10 -14 22 -2 13 -5 4 -6 -19 -1 -47 14 -64 34 -37 19 27 26 14 15 -28 -6 -22
-7 -82 -2 -159 4 -68 4 -125 0 -127 -4 -2 -8 -17 -8 -34 0 -24 2 -27 13 -16
21 21 47 84 47 112 0 34 16 33 23 -2 3 -15 15 -38 26 -51 12 -13 21 -37 21
-53 0 -19 4 -27 11 -22 23 14 -11 114 -52 155 -11 11 -18 27 -15 35 3 8 1 14
-5 14 -6 0 -9 7 -5 15 3 8 0 14 -7 12 -7 -1 -12 5 -12 13 0 8 8 16 18 18 10 2
17 -3 17 -11 0 -8 9 -25 19 -38 20 -24 20 -24 5 41 -8 36 -21 85 -29 109 -21
61 -10 65 15 5 75 -177 116 -242 138 -219 12 11 5 191 -8 214 -6 13 -9 30 -6
38 5 13 12 9 36 -17 17 -19 30 -42 30 -52 0 -27 24 -98 32 -98 5 0 8 9 8 19 0
11 4 23 10 26 5 3 10 15 10 26 0 11 7 19 16 19 12 0 15 6 10 23 -3 13 -1 41 5
62 9 31 8 41 -3 49 -9 8 -14 47 -16 146 l-2 135 19 -55 c10 -30 22 -80 26
-110 7 -55 40 -139 59 -152 16 -10 27 2 21 22 -3 11 0 20 10 24 11 4 15 -1 15
-19 0 -14 -4 -25 -8 -25 -8 0 -9 -45 -4 -153 2 -39 6 -50 22 -54 11 -3 20 -9
20 -14 0 -5 7 -9 15 -9 9 0 15 10 15 26 0 14 4 23 10 19 13 -8 13 11 0 36 -6
10 -7 19 -2 19 5 0 10 20 10 45 1 45 21 103 22 62 0 -32 25 -97 36 -97 7 0 11
-8 10 -18 -2 -24 28 -22 31 3 2 11 6 53 9 93 7 80 18 79 29 -1 l7 -49 35 38
c19 22 47 66 63 99 109 231 130 337 125 645 -3 237 -13 370 -27 370 -28 0
-108 -34 -108 -46 0 -8 -3 -13 -7 -12 -5 2 -26 -8 -48 -22 -22 -13 -48 -25
-58 -25 -10 0 -23 -11 -31 -25 -7 -14 -18 -24 -24 -23 -7 2 -12 -1 -12 -6 0
-5 -12 -16 -26 -26 -20 -13 -31 -15 -48 -7 -80 40 -498 179 -566 189 -30 5
-77 5 -105 2 -175 -24 -158 -24 -222 12 -32 19 -82 44 -112 56 -30 12 -57 26
-60 31 -3 5 -36 30 -73 56 -55 37 -79 47 -125 52 -32 3 -69 11 -83 17 -47 22
-149 150 -150 188 0 17 -57 69 -75 69 -19 0 -45 34 -36 48 14 24 12 121 -4
159 -9 21 -20 56 -25 79 -5 23 -25 75 -43 115 -19 41 -42 97 -53 124 -10 28
-24 56 -31 63 -7 7 -13 18 -13 23 0 5 -14 39 -31 76 -70 153 -93 202 -130 278
-21 44 -54 118 -74 165 l-36 85 38 33 c21 19 55 43 75 53 21 11 38 23 38 27 0
18 -38 179 -48 202 -17 40 -52 158 -52 175 0 9 -14 64 -31 123 -46 158 -76
267 -97 356 -18 76 -18 79 0 83 10 3 18 9 18 13 0 4 20 28 45 54 25 27 45 52
45 57 0 4 7 5 17 2 10 -4 14 -2 10 4 -10 16 72 112 96 113 10 0 77 70 77 80 0
4 10 14 22 22 25 17 428 418 487 485 53 59 80 70 129 50 l40 -16 60 67 c32 37
93 101 133 142 41 41 144 149 229 240 85 91 195 206 245 256 49 50 157 161
239 247 82 86 157 157 165 158 9 0 28 26 46 62 21 44 36 63 52 65 12 2 27 10
34 18 9 12 29 14 82 12 68 -3 70 -4 105 -45z m292 17 c0 -5 -2 -10 -4 -10 -3
0 -8 5 -11 10 -3 6 -1 10 4 10 6 0 11 -4 11 -10z m3650 -1090 c0 -5 -2 -10 -4
-10 -3 0 -8 5 -11 10 -3 6 -1 10 4 10 6 0 11 -4 11 -10z m-651 -996 c6 -14 8
-30 5 -36 -5 -8 -34 41 -34 58 0 14 19 0 29 -22z m1 -125 c0 -6 -4 -7 -10 -4
-5 3 -10 11 -10 16 0 6 5 7 10 4 6 -3 10 -11 10 -16z m-101 -2154 c1 -17 -1
-17 -9 -5 -5 8 -9 26 -9 40 0 23 1 23 9 5 5 -11 9 -29 9 -40z m-979 -425 c0
-5 -2 -10 -4 -10 -3 0 -8 5 -11 10 -3 6 -1 10 4 10 6 0 11 -4 11 -10z m10 -35
c0 -8 -2 -15 -4 -15 -2 0 -6 7 -10 15 -3 8 -1 15 4 15 6 0 10 -7 10 -15z m37
-165 c14 -47 28 -96 30 -110 3 -14 9 -29 13 -35 5 -5 11 -27 15 -48 4 -20 11
-40 16 -43 5 -3 9 -17 9 -31 0 -13 6 -37 14 -51 23 -42 98 -265 110 -327 7
-35 -6 -60 -27 -52 -9 3 -17 26 -21 62 -7 58 -75 281 -101 332 -8 15 -15 35
-15 43 0 9 -4 20 -9 25 -6 6 -12 21 -15 35 -26 136 -36 179 -44 201 -6 14 -11
48 -12 75 -2 60 1 79 7 39 3 -16 16 -68 30 -115z m-2317 -934 c0 -5 -7 -1 -15
10 -8 10 -14 24 -14 29 0 6 6 1 14 -9 8 -11 15 -24 15 -30z m-845 -146 c3 -5
1 -10 -4 -10 -6 0 -11 5 -11 10 0 6 2 10 4 10 3 0 8 -4 11 -10z m2529 -77 c-8
-33 -12 -39 -20 -30 -9 9 5 57 16 57 6 0 8 -11 4 -27z m-3021 -83 c-7 -28 -13
-25 -13 6 0 14 4 23 9 20 5 -3 7 -15 4 -26z m7235 -385 c0 -14 -4 -28 -9 -31
-5 -3 -9 9 -9 25 0 17 4 31 9 31 5 0 9 -11 9 -25z m-2858 -49 c0 -2 -8 -10
-17 -17 -16 -13 -17 -12 -4 4 13 16 21 21 21 13z m-245 -45 c-3 -6 -15 -16
-26 -21 -14 -8 -19 -7 -19 3 0 8 10 19 23 24 25 12 32 10 22 -6z m-4897 -88
c-10 -2 -28 -2 -40 0 -13 2 -5 4 17 4 22 1 32 -1 23 -4z"/>
<path d="M2466 7919 c-8 -12 -108 -119 -223 -238 -115 -119 -238 -247 -273
-285 -36 -38 -96 -101 -135 -141 -161 -165 -274 -285 -331 -350 -33 -39 -75
-87 -93 -108 l-33 -37 36 -15 c39 -16 42 -28 26 -86 -8 -27 -19 -41 -44 -53
-45 -21 -51 -20 -75 10 -15 19 -30 26 -56 26 -19 0 -35 4 -35 8 0 5 -14 15
-31 24 l-31 15 -161 -159 c-89 -88 -165 -164 -170 -168 -4 -4 -56 -56 -116
-117 -59 -60 -158 -157 -218 -215 -99 -95 -109 -108 -101 -130 5 -13 10 -37
13 -55 2 -17 8 -42 13 -55 6 -14 15 -52 22 -85 7 -33 27 -109 46 -170 19 -60
38 -132 43 -160 6 -27 21 -86 36 -130 14 -44 37 -124 51 -179 25 -93 26 -99 9
-109 -9 -5 -26 -18 -37 -29 -11 -11 -35 -26 -54 -34 -34 -14 -34 -15 -21 -47
17 -40 102 -220 128 -269 10 -20 19 -46 19 -57 0 -10 4 -21 9 -23 4 -1 25 -46
46 -98 20 -52 47 -117 60 -145 84 -180 106 -232 104 -250 -3 -39 1 -52 21 -75
11 -13 20 -36 20 -51 0 -15 4 -30 10 -34 5 -3 17 -31 27 -63 13 -42 30 -68 65
-101 25 -24 44 -49 41 -57 -2 -7 6 -18 19 -25 13 -6 27 -18 31 -25 9 -16 37
-19 37 -4 0 6 5 10 10 10 6 0 10 -7 10 -15 0 -8 7 -15 15 -15 8 0 29 -6 47
-14 18 -8 50 -22 71 -31 20 -9 37 -19 37 -24 0 -4 12 -14 28 -22 15 -7 38 -21
51 -31 13 -10 33 -18 44 -18 11 0 31 -10 44 -22 26 -24 43 -26 193 -14 84 7
108 5 203 -18 113 -27 139 -37 172 -66 11 -10 71 -30 135 -45 183 -42 178 -42
235 -1 94 67 160 110 215 141 l55 31 -1 74 c-2 92 -11 144 -34 190 -10 19 -23
60 -30 90 -17 72 -30 98 -77 141 -46 44 -172 110 -238 125 -29 7 -45 20 -45
38 0 9 69 -1 85 -13 6 -4 40 -20 77 -35 37 -15 72 -34 79 -42 33 -40 38 10 13
126 -9 41 -25 91 -35 111 -10 20 -16 39 -13 42 3 3 -2 19 -10 35 -17 33 -65
62 -103 62 -23 0 -63 31 -63 50 0 15 12 12 40 -10 37 -29 42 -24 21 18 -11 20
-22 63 -26 94 -7 64 -25 88 -25 35 0 -78 -22 -126 -32 -72 -3 14 -1 25 5 25
12 0 2 130 -14 181 -14 46 -27 149 -19 149 4 0 15 -30 24 -67 9 -38 22 -72 29
-78 7 -5 18 -29 25 -52 7 -23 36 -73 65 -112 28 -38 57 -77 64 -88 10 -14 11
0 6 72 -6 80 -5 89 9 78 11 -9 17 -43 22 -120 7 -113 19 -182 33 -192 28 -20
40 -86 46 -238 2 -51 10 -54 27 -13 7 17 19 30 27 30 11 0 13 -5 7 -17 -4 -10
-9 -43 -12 -73 -3 -50 2 -65 47 -157 28 -56 57 -128 66 -160 24 -82 76 -236
85 -248 28 -39 74 -405 85 -687 3 -70 8 -134 11 -142 3 -9 1 -16 -5 -16 -7 0
-9 -17 -6 -52 17 -154 17 -171 3 -179 -9 -6 -10 -11 -2 -17 7 -4 11 -52 12
-122 0 -63 6 -146 11 -185 6 -38 11 -110 11 -160 0 -49 6 -114 13 -143 l12
-54 77 6 c43 3 122 8 175 11 120 7 146 12 137 26 -3 6 -17 9 -31 6 -18 -3 -27
1 -34 17 -9 21 -9 21 -5 -1 3 -17 -1 -23 -13 -23 -18 0 -45 77 -33 95 8 12 7
60 -2 165 -5 58 -3 92 12 149 10 41 23 76 29 78 6 2 9 -6 7 -19 -11 -82 -12
-178 0 -178 17 0 43 -73 27 -78 -6 -2 -11 -11 -10 -20 0 -13 2 -14 6 -3 6 16
42 -36 73 -106 11 -24 26 -43 35 -43 8 0 15 -7 15 -15 0 -9 9 -15 25 -15 23 0
30 10 25 35 -1 5 8 1 19 -9 18 -16 25 -17 46 -8 25 12 25 29 1 62 -20 28 -36
60 -36 73 0 8 -13 28 -30 45 -32 34 -41 65 -15 55 15 -5 85 -105 85 -121 0
-15 114 -138 144 -154 34 -19 86 -15 99 8 4 8 21 14 37 14 17 0 30 3 30 6 0 3
-35 44 -77 90 -43 47 -80 89 -82 95 -1 6 -13 21 -26 35 -28 30 -39 75 -17 66
13 -5 13 -1 -1 24 -64 117 -124 353 -147 584 -29 288 12 876 69 985 12 22 19
45 17 52 -3 7 0 12 7 10 7 -1 12 5 12 13 0 8 -7 15 -15 15 -10 0 -18 16 -23
50 -5 28 -20 102 -34 165 -23 99 -26 142 -28 305 -1 105 -3 195 -3 202 -1 6
-20 33 -42 58 -22 25 -40 55 -40 66 0 28 17 15 41 -32 21 -42 44 -44 36 -3 -2
13 2 29 10 36 10 8 14 30 13 72 -2 86 -1 94 8 79 4 -7 7 -50 5 -95 -2 -54 1
-78 7 -67 5 8 10 54 12 102 1 48 6 87 10 87 15 0 18 -63 9 -210 -5 -95 -5
-168 1 -189 7 -23 6 -42 -1 -58 -14 -31 -14 -54 0 -50 6 1 14 -4 16 -10 3 -7
-2 -13 -11 -13 -17 0 -21 -12 -8 -24 4 -4 7 -11 7 -14 1 -4 5 -29 9 -57 5 -27
8 -72 7 -100 -3 -65 23 -221 51 -314 23 -74 23 -74 76 -98 29 -12 69 -23 90
-23 40 0 60 -5 165 -43 l68 -25 10 25 c5 13 9 28 9 33 0 4 20 59 45 122 54
138 150 321 211 403 25 33 70 94 100 135 95 129 111 149 241 302 71 82 144
168 163 192 19 24 58 66 85 94 28 28 70 75 95 105 25 30 60 64 78 76 19 12 40
37 47 54 7 18 23 41 34 51 12 11 21 25 21 33 0 8 23 36 50 64 28 27 50 59 50
70 0 19 -28 65 -59 98 -7 8 -51 92 -97 185 -45 94 -99 198 -118 231 -20 33
-39 67 -43 75 -4 8 -48 75 -97 148 -50 73 -98 145 -106 160 -8 15 -17 29 -20
32 -3 3 -13 21 -24 40 -10 19 -28 45 -40 56 -83 84 -120 154 -81 154 8 0 15 7
15 15 0 8 11 22 25 31 13 9 27 25 30 36 4 10 21 35 37 54 29 33 30 37 17 61
-8 15 -131 145 -274 289 -143 145 -278 282 -301 306 -23 24 -57 57 -77 73 -20
17 -36 34 -37 39 0 15 -62 80 -122 129 -44 35 -68 47 -92 47 -42 0 -83 31 -91
70 -6 26 -22 38 -113 86 -59 32 -158 86 -219 121 -62 35 -161 87 -220 116 -98
47 -114 52 -173 50 -36 0 -114 -13 -173 -27 -125 -30 -189 -33 -232 -10 -31
17 -132 54 -146 54 -4 0 -15 -10 -23 -21z m1114 -3189 c0 -16 -4 -30 -8 -30
-5 0 -7 14 -4 30 2 17 6 30 8 30 2 0 4 -13 4 -30z m-1330 -29 c0 -15 4 -31 9
-36 5 -6 11 -28 15 -50 4 -31 0 -24 -19 29 -27 75 -31 101 -15 91 6 -3 10 -19
10 -34z m50 -176 c0 -17 -2 -17 -10 -5 -5 8 -10 24 -10 35 0 17 2 17 10 5 5
-8 10 -24 10 -35z m1867 -45 c-103 -52 -247 -196 -247 -246 0 -11 -11 -31 -25
-46 -14 -15 -25 -33 -25 -41 0 -7 -7 -22 -15 -33 -8 -10 -15 -22 -15 -26 0
-18 24 -5 97 52 43 33 86 60 95 60 9 0 19 4 22 9 8 12 56 20 56 10 0 -5 -19
-14 -42 -21 -30 -9 -44 -20 -52 -40 -6 -15 -18 -28 -27 -28 -9 0 -45 -30 -79
-67 -65 -70 -166 -153 -186 -153 -18 0 -24 27 -9 40 19 16 65 95 65 113 0 32
123 257 163 299 50 51 83 78 97 78 6 0 10 4 10 9 0 5 8 11 18 15 9 3 37 14 62
25 25 10 56 19 70 20 19 0 10 -7 -33 -29z m-1532 -195 c0 -51 -4 -91 -10 -92
-10 -3 -11 27 -6 165 3 91 17 30 16 -73z m-131 -61 c9 -8 16 -18 16 -20 0 -7
-38 15 -45 26 -10 16 12 12 29 -6z m1579 -89 c1 -6 -14 -11 -33 -13 l-35 -2
25 15 c27 15 40 15 43 0z m-1343 -36 c-41 -32 -60 -41 -60 -28 0 22 33 49 59
49 l26 0 -25 -21z m830 -2350 c0 -6 -4 -7 -10 -4 -5 3 -10 11 -10 16 0 6 5 7
10 4 6 -3 10 -11 10 -16z m175 -40 c0 -7 -8 -15 -17 -17 -18 -3 -25 18 -11 32
10 10 28 1 28 -15z"/>
<path d="M6140 6130 c14 -4 36 -8 50 -8 23 -1 23 0 5 8 -11 5 -33 8 -50 8 -29
0 -29 0 -5 -8z"/>
<path d="M7125 5790 c-3 -5 -2 -10 4 -10 5 0 13 5 16 10 3 6 2 10 -4 10 -5 0
-13 -4 -16 -10z"/>
<path d="M7176 5703 c-11 -12 -6 -19 14 -19 11 0 20 3 20 7 0 10 -27 19 -34
12z"/>
<path d="M7031 5644 c0 -11 3 -14 6 -6 3 7 2 16 -1 19 -3 4 -6 -2 -5 -13z"/>
<path d="M7008 5553 c-10 -2 -18 -9 -18 -14 0 -15 43 -7 48 9 4 12 0 13 -30 5z"/>
<path d="M7175 5419 c-4 -11 -4 -23 -2 -26 9 -8 27 7 27 22 0 23 -18 27 -25 4z"/>
<path d="M7130 5376 c0 -7 6 -19 14 -25 11 -9 15 -8 20 5 4 10 1 21 -6 26 -19
12 -28 10 -28 -6z"/>
<path d="M2400 4476 c0 -29 13 -63 35 -90 26 -33 29 -9 5 49 -25 63 -40 78
-40 41z"/>
<path d="M2475 4400 c3 -5 8 -10 11 -10 2 0 4 5 4 10 0 6 -5 10 -11 10 -5 0
-7 -4 -4 -10z"/>
<path d="M3716 3415 c-3 -9 -9 -60 -12 -113 -3 -53 -8 -104 -10 -112 -9 -26
-4 -451 6 -563 15 -174 61 -353 125 -491 19 -40 35 -83 35 -95 l0 -21 22 22
21 21 11 -24 c9 -21 11 -18 16 31 5 54 5 54 13 20 14 -60 18 -70 27 -70 5 0 7
57 3 133 -3 72 0 222 7 332 7 110 14 227 15 260 2 33 6 89 9 125 3 36 9 97 12
135 6 79 8 88 24 205 19 127 19 125 -15 128 -52 6 -187 42 -224 61 -59 30 -78
33 -85 16z"/>
<path d="M6179 2768 c-37 -41 -46 -68 -48 -141 -1 -62 -32 -123 -67 -131 -25
-7 -26 -9 -18 -54 5 -26 7 -72 6 -103 -1 -31 2 -68 7 -83 6 -14 7 -26 3 -26
-15 0 -32 40 -41 99 -5 33 -15 69 -20 80 -6 11 -11 33 -11 50 0 31 -16 42 -26
18 -6 -16 24 -148 77 -342 27 -95 42 -141 54 -155 6 -8 17 -34 23 -57 18 -63
118 -132 222 -154 19 -4 60 -14 90 -22 131 -35 312 -51 572 -48 82 1 87 2 90
24 3 20 8 22 73 23 39 1 106 7 151 13 45 6 89 8 99 5 12 -5 23 -1 32 11 10 14
30 20 78 23 36 2 65 8 65 13 0 5 -11 9 -24 9 -14 0 -27 4 -30 9 -3 5 -23 12
-43 16 -21 4 -47 12 -58 18 -11 6 -22 12 -25 12 -3 1 -63 29 -135 64 -221 106
-255 121 -271 121 -8 0 -30 11 -47 24 -18 13 -54 34 -82 46 -56 25 -171 104
-179 123 -2 7 -5 4 -5 -5 -1 -21 -16 -24 -28 -5 -4 6 -22 50 -39 97 -18 47
-39 103 -49 125 -16 38 -16 39 2 25 14 -11 13 -9 -3 10 -12 14 -36 65 -55 114
-30 79 -40 94 -91 137 -43 36 -68 49 -100 53 -89 10 -112 5 -149 -36z m-49
-278 c0 -5 -4 -10 -10 -10 -5 0 -10 5 -10 10 0 6 5 10 10 10 6 0 10 -4 10 -10z
m0 -67 c0 -32 -5 -28 -14 10 -4 19 -3 26 4 22 5 -3 10 -18 10 -32z m878 -679
c40 -5 62 -11 62 -20 0 -13 -7 -13 -165 6 -44 6 -103 10 -132 10 -33 0 -53 4
-53 12 0 11 138 7 288 -8z"/>
<path d="M2881 2604 c0 -11 3 -14 6 -6 3 7 2 16 -1 19 -3 4 -6 -2 -5 -13z"/>
<path d="M2878 2570 c-6 -14 -21 -141 -33 -283 -3 -38 -13 -79 -21 -92 -14
-21 -27 -77 -65 -271 -7 -36 -15 -53 -28 -57 -15 -3 -18 -16 -20 -68 -1 -35
-4 -72 -7 -81 -7 -22 12 -24 20 -2 3 9 6 30 7 47 0 18 4 41 9 52 6 13 8 -9 7
-62 -1 -56 2 -86 11 -95 8 -8 40 -13 87 -13 85 -1 87 2 74 81 -13 82 -11 117
6 110 11 -4 15 2 15 20 0 20 -4 25 -16 20 -13 -5 -15 -2 -9 16 9 32 6 191 -6
230 -5 18 -10 98 -10 178 -2 162 -12 293 -21 270z"/>
<path d="M6656 2327 c3 -10 9 -15 12 -12 3 3 0 11 -7 18 -10 9 -11 8 -5 -6z"/>
<path d="M2737 2323 c-4 -3 -7 -13 -7 -22 1 -13 3 -13 11 2 11 19 8 33 -4 20z"/>
<path d="M6670 2290 c0 -5 5 -10 11 -10 5 0 7 5 4 10 -3 6 -8 10 -11 10 -2 0
-4 -4 -4 -10z"/>
<path d="M1772 2230 c0 -14 2 -19 5 -12 2 6 2 18 0 25 -3 6 -5 1 -5 -13z"/>
<path d="M2570 1990 c-12 -23 -19 -44 -16 -47 2 -3 14 14 25 38 27 55 19 64
-9 9z"/>
<path d="M3890 2010 c0 -13 7 -20 20 -20 11 0 20 3 20 8 0 4 -9 13 -20 20 -18
11 -20 10 -20 -8z"/>
<path d="M7386 1966 c10 -8 21 -12 24 -10 5 6 -21 24 -34 24 -6 0 -1 -6 10
-14z"/>
<path d="M2170 1941 c0 -11 5 -23 10 -26 6 -3 10 3 10 14 0 11 -4 23 -10 26
-5 3 -10 -3 -10 -14z"/>
<path d="M8110 1908 c-36 -11 -73 -27 -82 -36 -15 -16 -15 -19 0 -52 15 -31
22 -35 56 -35 35 0 39 3 54 40 8 22 24 52 34 67 31 45 31 45 -62 16z"/>
<path d="M2075 1891 c-3 -5 -1 -12 5 -16 5 -3 10 1 10 9 0 18 -6 21 -15 7z"/>
<path d="M1665 1838 c-9 -47 -26 -88 -36 -88 -15 0 -10 -30 5 -36 8 -3 17 -17
21 -31 8 -33 17 -23 24 28 7 47 23 52 32 9 4 -17 9 -33 12 -36 12 -12 24 33
19 74 -4 38 -6 41 -17 25 -21 -28 -30 -7 -11 23 17 24 17 27 0 45 -25 28 -42
23 -49 -13z m5 -92 c0 -3 -4 -8 -10 -11 -5 -3 -10 -1 -10 4 0 6 5 11 10 11 6
0 10 -2 10 -4z"/>
<path d="M3892 1853 c2 -9 9 -18 16 -21 18 -6 15 25 -4 32 -11 4 -14 1 -12
-11z"/>
<path d="M7687 1852 c-37 -40 -5 -82 60 -82 36 0 42 3 48 27 3 15 2 29 -3 31
-6 2 -8 12 -5 22 5 18 0 20 -39 20 -31 0 -50 -6 -61 -18z"/>
<path d="M7890 1863 c0 -3 16 -21 36 -39 21 -18 34 -37 29 -43 -4 -8 -18 -2
-41 19 -41 36 -74 40 -74 9 0 -12 -8 -27 -17 -34 -15 -11 -13 -13 13 -14 93
-6 181 5 188 25 3 8 -1 14 -9 14 -8 0 -35 16 -61 35 -44 34 -64 43 -64 28z"/>
<path d="M2535 1824 c-27 -66 -14 -73 34 -19 38 43 39 55 6 55 -19 0 -28 -8
-40 -36z"/>
<path d="M1165 1758 c4 -21 1 -28 -10 -28 -8 0 -15 -4 -15 -9 0 -17 12 -41 21
-41 4 0 6 7 3 15 -4 9 0 15 10 15 20 0 20 17 0 50 l-15 25 6 -27z"/>
<path d="M3282 1756 c1 -10 8 -17 13 -17 15 1 12 24 -3 29 -9 3 -13 -2 -10
-12z"/>
<path d="M7457 1759 c8 -8 16 -8 30 0 16 9 14 10 -11 11 -22 0 -27 -3 -19 -11z"/>
<path d="M7603 1763 c-23 -9 -14 -25 10 -18 31 10 45 25 22 24 -11 0 -26 -3
-32 -6z"/>
<path d="M2087 1743 c-12 -11 -8 -23 8 -23 8 0 15 7 15 15 0 16 -12 20 -23 8z"/>
<path d="M2240 1714 c0 -8 5 -12 10 -9 6 3 10 10 10 16 0 5 -4 9 -10 9 -5 0
-10 -7 -10 -16z"/>
<path d="M1480 1684 c0 -45 24 -42 28 4 2 24 -1 32 -12 32 -12 0 -16 -10 -16
-36z"/>
<path d="M7115 1710 c-7 -12 45 -12 90 0 25 6 20 8 -27 9 -31 0 -60 -3 -63 -9z"/>
<path d="M7248 1713 c7 -3 16 -2 19 1 4 3 -2 6 -13 5 -11 0 -14 -3 -6 -6z"/>
<path d="M1331 1684 c0 -11 3 -14 6 -6 3 7 2 16 -1 19 -3 4 -6 -2 -5 -13z"/>
<path d="M7815 1690 c3 -5 14 -10 23 -10 15 0 15 2 2 10 -20 13 -33 13 -25 0z"/>
<path d="M2690 1668 c0 -4 9 -8 20 -8 11 0 20 4 20 9 0 6 -9 9 -20 8 -11 -1
-20 -5 -20 -9z"/>
<path d="M3599 1653 c-13 -15 -11 -16 21 -9 19 4 41 8 48 9 6 0 12 4 12 9 0
15 -67 8 -81 -9z"/>
<path d="M1335 1650 c3 -5 8 -10 11 -10 2 0 4 5 4 10 0 6 -5 10 -11 10 -5 0
-7 -4 -4 -10z"/>
<path d="M1370 1633 c1 -19 16 -32 29 -24 11 7 9 11 -8 20 -11 7 -21 8 -21 4z"/>
<path d="M4340 1611 c0 -6 4 -13 10 -16 6 -3 7 1 4 9 -7 18 -14 21 -14 7z"/>
<path d="M8360 1580 c0 -5 5 -10 10 -10 6 0 10 5 10 10 0 6 -4 10 -10 10 -5 0
-10 -4 -10 -10z"/>
<path d="M4306 1556 c3 -8 13 -12 25 -9 16 5 18 8 7 14 -20 13 -38 11 -32 -5z"/>
<path d="M801 1455 c1 -19 18 -51 18 -35 0 8 -4 22 -9 30 -5 8 -9 11 -9 5z"/>
<path d="M4260 1410 c0 -5 5 -10 10 -10 6 0 10 5 10 10 0 6 -4 10 -10 10 -5 0
-10 -4 -10 -10z"/>
<path d="M4385 1410 c-3 -5 -1 -10 4 -10 6 0 11 5 11 10 0 6 -2 10 -4 10 -3 0
-8 -4 -11 -10z"/>
<path d="M4375 1381 c-3 -5 -1 -12 5 -16 5 -3 10 1 10 9 0 18 -6 21 -15 7z"/>
<path d="M704 1369 c-3 -6 -1 -16 5 -22 8 -8 11 -5 11 11 0 24 -5 28 -16 11z"/>
<path d="M4315 1355 c26 -22 55 -33 55 -21 0 6 -69 46 -78 46 -4 -1 7 -12 23
-25z"/>
<path d="M4420 1344 c0 -30 3 -34 14 -25 7 6 11 22 8 36 -7 38 -22 30 -22 -11z"/>
<path d="M732 1330 c0 -14 2 -19 5 -12 2 6 2 18 0 25 -3 6 -5 1 -5 -13z"/>
</g>
</svg>
